# xmcd CD database file
#
# Track frame offsets:
#	150
#	13795
#	24318
#	44118
#	58926
#	76056
#	86171
#	97092
#	109292
#	123582
#	138330
#	153266
#	166634
#	180742
#	195923
#	207774
#	217050
#	230500
#	248967
#
# Disc length: 3536 seconds
#
# Revision: 0
# Processed by: cddbd v1.5.1PL0 Copyright (c) Steve Scherf et al.
# Submitted via: CDex 1.51
#
DISCID=070dce13
DTITLE=Martina McBride - Timeless
DYEAR=2005
DGENRE=Country
TTITLE0=You Win Again
TTITLE1=I'll Be There
TTITLE2=I Can't Stop Loving You
TTITLE3=(I Never Promised You) A Rose Garden
TTITLE4=Today I Started Loving You Again
TTITLE5=You Ain't Woman Enough
TTITLE6=Once a Day
TTITLE7=Pick Me Up On Your Way Down
TTITLE8=I Don't Hurt Anymore
TTITLE9=True Love Ways
TTITLE10='Til I Can Make It On My Own
TTITLE11=I Still Miss Someone
TTITLE12=Heartaches By the Number
TTITLE13=Satin Sheets
TTITLE14=Thanks a Lot
TTITLE15=Love's Gonna Live Here
TTITLE16=Make the World Go Away
TTITLE17=Help Me Make It Through the Night
TTITLE18=Let It Be Me
EXTD=YEAR: 2005
EXTT0=
EXTT1=
EXTT2=
EXTT3=
EXTT4=
EXTT5=
EXTT6=
EXTT7=
EXTT8=
EXTT9=
EXTT10=
EXTT11=
EXTT12=
EXTT13=
EXTT14=
EXTT15=
EXTT16=
EXTT17=
EXTT18=
PLAYORDER=
